{
    "asset" : {
        "generator" : "Khronos glTF Blender I/O v1.7.33",
        "version" : "2.0"
    },
    "extensionsUsed" : [
        "KHR_lights_punctual"
    ],
    "extensionsRequired" : [
        "KHR_lights_punctual"
    ],
    "extensions" : {
        "KHR_lights_punctual" : {
            "lights" : [
                {
                    "color" : [
                        1,
                        0.550046443939209,
                        0.29861462116241455
                    ],
                    "intensity" : 300,
                    "type" : "point",
                    "name" : "Point"
                },
                {
                    "color" : [
                        0.11907844990491867,
                        0.14956782758235931,
                        0.3423839807510376
                    ],
                    "intensity" : 300,
                    "type" : "point",
                    "name" : "Point.001"
                }
            ]
        }
    },
    "scene" : 0,
    "scenes" : [
        {
            "name" : "Scene",
            "nodes" : [
                0,
                1,
                3,
                5,
                6,
                7
            ]
        }
    ],
    "nodes" : [
        {
            "mesh" : 0,
            "name" : "Plane",
            "scale" : [
                3.008121967315674,
                1,
                3.008121967315674
            ]
        },
        {
            "mesh" : 1,
            "name" : "Sphere",
            "scale" : [
                0.5,
                0.5,
                0.5
            ],
            "translation" : [
                -2.1802594661712646,
                1.272408366203308,
                -2.200000047683716
            ]
        },
        {
            "extensions" : {
                "KHR_lights_punctual" : {
                    "light" : 0
                }
            },
            "name" : "Point_Orientation",
            "rotation" : [
                -0.7071067690849304,
                0,
                0,
                0.7071067690849304
            ]
        },
        {
            "children" : [
                2
            ],
            "name" : "Point",
            "translation" : [
                0,
                4,
                4
            ]
        },
        {
            "extensions" : {
                "KHR_lights_punctual" : {
                    "light" : 1
                }
            },
            "name" : "Point.001_Orientation",
            "rotation" : [
                -0.7071067690849304,
                0,
                0,
                0.7071067690849304
            ]
        },
        {
            "children" : [
                4
            ],
            "name" : "Point.001",
            "translation" : [
                0,
                4.514608860015869,
                -5.191309452056885
            ]
        },
        {
            "mesh" : 2,
            "name" : "Cube",
            "rotation" : [
                0,
                0.7071068286895752,
                0,
                0.7071068286895752
            ],
            "translation" : [
                0,
                2.0914700031280518,
                0
            ]
        },
        {
            "mesh" : 3,
            "name" : "Cube.001",
            "scale" : [
                0.20000000298023224,
                0.20000000298023224,
                0.20000000298023224
            ],
            "translation" : [
                0,
                4,
                4
            ]
        }
    ],
    "materials" : [
        {
            "doubleSided" : true,
            "name" : "MPlane",
            "pbrMetallicRoughness" : {
                "baseColorFactor" : [
                    0.07931728661060333,
                    0.010654379613697529,
                    0.23300781846046448,
                    1
                ],
                "metallicFactor" : 0,
                "roughnessFactor" : 0.5
            }
        },
        {
            "doubleSided" : true,
            "name" : "MSphere",
            "pbrMetallicRoughness" : {
                "baseColorFactor" : [
                    0.15742258727550507,
                    0,
                    0.002367995912209153,
                    1
                ],
                "metallicFactor" : 0,
                "roughnessFactor" : 0.16692915558815002
            }
        },
        {
            "doubleSided" : true,
            "name" : "White",
            "pbrMetallicRoughness" : {
                "baseColorFactor" : [
                    0.057802021503448486,
                    0.057802021503448486,
                    0.057802021503448486,
                    1
                ],
                "metallicFactor" : 0,
                "roughnessFactor" : 0.5
            }
        },
        {
            "doubleSided" : true,
            "emissiveFactor" : [
                1,
                1,
                1
            ],
            "name" : "Material",
            "pbrMetallicRoughness" : {
                "metallicFactor" : 0,
                "roughnessFactor" : 0.5
            }
        }
    ],
    "meshes" : [
        {
            "name" : "Plane",
            "primitives" : [
                {
                    "attributes" : {
                        "POSITION" : 0,
                        "NORMAL" : 1,
                        "TANGENT" : 2,
                        "TEXCOORD_0" : 3
                    },
                    "indices" : 4,
                    "material" : 0
                }
            ]
        },
        {
            "name" : "Sphere",
            "primitives" : [
                {
                    "attributes" : {
                        "POSITION" : 5,
                        "NORMAL" : 6,
                        "TANGENT" : 7,
                        "TEXCOORD_0" : 8
                    },
                    "indices" : 9,
                    "material" : 1
                }
            ]
        },
        {
            "name" : "Cube.002",
            "primitives" : [
                {
                    "attributes" : {
                        "POSITION" : 10,
                        "NORMAL" : 11,
                        "TANGENT" : 12,
                        "TEXCOORD_0" : 13
                    },
                    "indices" : 14,
                    "material" : 2
                }
            ]
        },
        {
            "name" : "Cube",
            "primitives" : [
                {
                    "attributes" : {
                        "POSITION" : 15,
                        "NORMAL" : 16,
                        "TANGENT" : 17,
                        "TEXCOORD_0" : 18
                    },
                    "indices" : 19,
                    "material" : 3
                }
            ]
        }
    ],
    "accessors" : [
        {
            "bufferView" : 0,
            "componentType" : 5126,
            "count" : 4,
            "max" : [
                1,
                0,
                1
            ],
            "min" : [
                -1,
                0,
                -1
            ],
            "type" : "VEC3"
        },
        {
            "bufferView" : 1,
            "componentType" : 5126,
            "count" : 4,
            "type" : "VEC3"
        },
        {
            "bufferView" : 2,
            "componentType" : 5126,
            "count" : 4,
            "type" : "VEC4"
        },
        {
            "bufferView" : 3,
            "componentType" : 5126,
            "count" : 4,
            "type" : "VEC2"
        },
        {
            "bufferView" : 4,
            "componentType" : 5123,
            "count" : 6,
            "type" : "SCALAR"
        },
        {
            "bufferView" : 5,
            "componentType" : 5126,
            "count" : 13975,
            "max" : [
                9.799994468688965,
                1,
                9.799991607666016
            ],
            "min" : [
                -1.0000017881393433,
                -1,
                -0.9999987483024597
            ],
            "type" : "VEC3"
        },
        {
            "bufferView" : 6,
            "componentType" : 5126,
            "count" : 13975,
            "type" : "VEC3"
        },
        {
            "bufferView" : 7,
            "componentType" : 5126,
            "count" : 13975,
            "type" : "VEC4"
        },
        {
            "bufferView" : 8,
            "componentType" : 5126,
            "count" : 13975,
            "type" : "VEC2"
        },
        {
            "bufferView" : 9,
            "componentType" : 5123,
            "count" : 72000,
            "type" : "SCALAR"
        },
        {
            "bufferView" : 10,
            "componentType" : 5126,
            "count" : 194,
            "max" : [
                2.6778268814086914,
                0.07490318268537521,
                0.30513429641723633
            ],
            "min" : [
                -2.6778268814086914,
                -0.07490318268537521,
                -0.30513429641723633
            ],
            "type" : "VEC3"
        },
        {
            "bufferView" : 11,
            "componentType" : 5126,
            "count" : 194,
            "type" : "VEC3"
        },
        {
            "bufferView" : 12,
            "componentType" : 5126,
            "count" : 194,
            "type" : "VEC4"
        },
        {
            "bufferView" : 13,
            "componentType" : 5126,
            "count" : 194,
            "type" : "VEC2"
        },
        {
            "bufferView" : 14,
            "componentType" : 5123,
            "count" : 900,
            "type" : "SCALAR"
        },
        {
            "bufferView" : 15,
            "componentType" : 5126,
            "count" : 24,
            "max" : [
                1,
                1,
                1
            ],
            "min" : [
                -1,
                -1,
                -1
            ],
            "type" : "VEC3"
        },
        {
            "bufferView" : 16,
            "componentType" : 5126,
            "count" : 24,
            "type" : "VEC3"
        },
        {
            "bufferView" : 17,
            "componentType" : 5126,
            "count" : 24,
            "type" : "VEC4"
        },
        {
            "bufferView" : 18,
            "componentType" : 5126,
            "count" : 24,
            "type" : "VEC2"
        },
        {
            "bufferView" : 19,
            "componentType" : 5123,
            "count" : 36,
            "type" : "SCALAR"
        }
    ],
    "bufferViews" : [
        {
            "buffer" : 0,
            "byteLength" : 48,
            "byteOffset" : 0
        },
        {
            "buffer" : 0,
            "byteLength" : 48,
            "byteOffset" : 48
        },
        {
            "buffer" : 0,
            "byteLength" : 64,
            "byteOffset" : 96
        },
        {
            "buffer" : 0,
            "byteLength" : 32,
            "byteOffset" : 160
        },
        {
            "buffer" : 0,
            "byteLength" : 12,
            "byteOffset" : 192
        },
        {
            "buffer" : 0,
            "byteLength" : 167700,
            "byteOffset" : 204
        },
        {
            "buffer" : 0,
            "byteLength" : 167700,
            "byteOffset" : 167904
        },
        {
            "buffer" : 0,
            "byteLength" : 223600,
            "byteOffset" : 335604
        },
        {
            "buffer" : 0,
            "byteLength" : 111800,
            "byteOffset" : 559204
        },
        {
            "buffer" : 0,
            "byteLength" : 144000,
            "byteOffset" : 671004
        },
        {
            "buffer" : 0,
            "byteLength" : 2328,
            "byteOffset" : 815004
        },
        {
            "buffer" : 0,
            "byteLength" : 2328,
            "byteOffset" : 817332
        },
        {
            "buffer" : 0,
            "byteLength" : 3104,
            "byteOffset" : 819660
        },
        {
            "buffer" : 0,
            "byteLength" : 1552,
            "byteOffset" : 822764
        },
        {
            "buffer" : 0,
            "byteLength" : 1800,
            "byteOffset" : 824316
        },
        {
            "buffer" : 0,
            "byteLength" : 288,
            "byteOffset" : 826116
        },
        {
            "buffer" : 0,
            "byteLength" : 288,
            "byteOffset" : 826404
        },
        {
            "buffer" : 0,
            "byteLength" : 384,
            "byteOffset" : 826692
        },
        {
            "buffer" : 0,
            "byteLength" : 192,
            "byteOffset" : 827076
        },
        {
            "buffer" : 0,
            "byteLength" : 72,
            "byteOffset" : 827268
        }
    ],
    "buffers" : [
        {
            "byteLength" : 827340,
            "uri" : "test.bin"
        }
    ]
}
