{
    "asset" : {
        "generator" : "Khronos glTF Blender I/O v1.7.33",
        "version" : "2.0"
    },
    "extensionsUsed" : [
        "KHR_lights_punctual"
    ],
    "extensionsRequired" : [
        "KHR_lights_punctual"
    ],
    "extensions" : {
        "KHR_lights_punctual" : {
            "lights" : [
                {
                    "color" : [
                        0.9901872277259827,
                        1,
                        0.4850897789001465
                    ],
                    "intensity" : 1000,
                    "type" : "point",
                    "name" : "Light"
                },
                {
                    "color" : [
                        0.9520306587219238,
                        0.15291960537433624,
                        1
                    ],
                    "intensity" : 1000,
                    "type" : "point",
                    "name" : "Point"
                }
            ]
        }
    },
    "scene" : 0,
    "scenes" : [
        {
            "name" : "Scene",
            "nodes" : [
                1,
                4,
                6,
                7
            ]
        }
    ],
    "nodes" : [
        {
            "extensions" : {
                "KHR_lights_punctual" : {
                    "light" : 0
                }
            },
            "name" : "Light_Orientation",
            "rotation" : [
                -0.7071067690849304,
                0,
                0,
                0.7071067690849304
            ]
        },
        {
            "children" : [
                0
            ],
            "name" : "Light",
            "rotation" : [
                0.16907575726509094,
                0.7558803558349609,
                -0.27217137813568115,
                0.570947527885437
            ],
            "translation" : [
                4.076245307922363,
                3.879577398300171,
                -1.0054539442062378
            ]
        },
        {
            "mesh" : 0,
            "name" : "Torus01",
            "rotation" : [
                0,
                0,
                -0.2588190734386444,
                0.965925931930542
            ]
        },
        {
            "mesh" : 1,
            "name" : "Torus02",
            "rotation" : [
                0,
                0,
                0.2588190734386444,
                0.965925931930542
            ]
        },
        {
            "children" : [
                2,
                3
            ],
            "mesh" : 2,
            "name" : "Icosphere"
        },
        {
            "extensions" : {
                "KHR_lights_punctual" : {
                    "light" : 1
                }
            },
            "name" : "Point_Orientation",
            "rotation" : [
                -0.7071067690849304,
                0,
                0,
                0.7071067690849304
            ]
        },
        {
            "children" : [
                5
            ],
            "name" : "Point",
            "translation" : [
                -3.0530052185058594,
                -0.008349433541297913,
                -2.791290044784546
            ]
        },
        {
            "mesh" : 3,
            "name" : "Cube_i"
        }
    ],
    "materials" : [
        {
            "doubleSided" : true,
            "name" : "Material",
            "pbrMetallicRoughness" : {
                "baseColorFactor" : [
                    0.13286297023296356,
                    0.12253512442111969,
                    0.13023538887500763,
                    1
                ],
                "metallicFactor" : 0,
                "roughnessFactor" : 0.4000000059604645
            }
        },
        {
            "doubleSided" : true,
            "emissiveFactor" : [
                1,
                1,
                1
            ],
            "name" : "Material.001",
            "pbrMetallicRoughness" : {
                "baseColorFactor" : [
                    0,
                    0,
                    0,
                    1
                ],
                "metallicFactor" : 0
            }
        }
    ],
    "meshes" : [
        {
            "name" : "Torus",
            "primitives" : [
                {
                    "attributes" : {
                        "POSITION" : 0,
                        "NORMAL" : 1,
                        "TANGENT" : 2,
                        "TEXCOORD_0" : 3
                    },
                    "indices" : 4,
                    "material" : 0
                }
            ]
        },
        {
            "name" : "Torus.001",
            "primitives" : [
                {
                    "attributes" : {
                        "POSITION" : 5,
                        "NORMAL" : 6,
                        "TANGENT" : 7,
                        "TEXCOORD_0" : 8
                    },
                    "indices" : 9,
                    "material" : 0
                }
            ]
        },
        {
            "name" : "Icosphere.001",
            "primitives" : [
                {
                    "attributes" : {
                        "POSITION" : 10,
                        "NORMAL" : 11,
                        "TANGENT" : 12,
                        "TEXCOORD_0" : 13
                    },
                    "indices" : 14,
                    "material" : 0
                }
            ]
        },
        {
            "name" : "Cube",
            "primitives" : [
                {
                    "attributes" : {
                        "POSITION" : 15,
                        "NORMAL" : 16,
                        "TANGENT" : 17,
                        "TEXCOORD_0" : 18
                    },
                    "indices" : 19,
                    "material" : 1
                }
            ]
        }
    ],
    "accessors" : [
        {
            "bufferView" : 0,
            "componentType" : 5126,
            "count" : 2304,
            "max" : [
                1.5200001001358032,
                0.20000000298023224,
                1.5200001001358032
            ],
            "min" : [
                -1.5200001001358032,
                -0.20000000298023224,
                -1.5200001001358032
            ],
            "type" : "VEC3"
        },
        {
            "bufferView" : 1,
            "componentType" : 5126,
            "count" : 2304,
            "type" : "VEC3"
        },
        {
            "bufferView" : 2,
            "componentType" : 5126,
            "count" : 2304,
            "type" : "VEC4"
        },
        {
            "bufferView" : 3,
            "componentType" : 5126,
            "count" : 2304,
            "type" : "VEC2"
        },
        {
            "bufferView" : 4,
            "componentType" : 5123,
            "count" : 3456,
            "type" : "SCALAR"
        },
        {
            "bufferView" : 5,
            "componentType" : 5126,
            "count" : 2304,
            "max" : [
                1.9600000381469727,
                0.20000000298023224,
                1.9600000381469727
            ],
            "min" : [
                -1.9600000381469727,
                -0.20000000298023224,
                -1.9600000381469727
            ],
            "type" : "VEC3"
        },
        {
            "bufferView" : 6,
            "componentType" : 5126,
            "count" : 2304,
            "type" : "VEC3"
        },
        {
            "bufferView" : 7,
            "componentType" : 5126,
            "count" : 2304,
            "type" : "VEC4"
        },
        {
            "bufferView" : 8,
            "componentType" : 5126,
            "count" : 2304,
            "type" : "VEC2"
        },
        {
            "bufferView" : 9,
            "componentType" : 5123,
            "count" : 3456,
            "type" : "SCALAR"
        },
        {
            "bufferView" : 10,
            "componentType" : 5126,
            "count" : 240,
            "max" : [
                0.9510578513145447,
                1,
                0.9999999403953552
            ],
            "min" : [
                -0.9510578513145447,
                -1,
                -0.9999999403953552
            ],
            "type" : "VEC3"
        },
        {
            "bufferView" : 11,
            "componentType" : 5126,
            "count" : 240,
            "type" : "VEC3"
        },
        {
            "bufferView" : 12,
            "componentType" : 5126,
            "count" : 240,
            "type" : "VEC4"
        },
        {
            "bufferView" : 13,
            "componentType" : 5126,
            "count" : 240,
            "type" : "VEC2"
        },
        {
            "bufferView" : 14,
            "componentType" : 5123,
            "count" : 240,
            "type" : "SCALAR"
        },
        {
            "bufferView" : 15,
            "componentType" : 5126,
            "count" : 24,
            "max" : [
                0.5,
                0.5,
                0.5
            ],
            "min" : [
                -0.5,
                -0.5,
                -0.5
            ],
            "type" : "VEC3"
        },
        {
            "bufferView" : 16,
            "componentType" : 5126,
            "count" : 24,
            "type" : "VEC3"
        },
        {
            "bufferView" : 17,
            "componentType" : 5126,
            "count" : 24,
            "type" : "VEC4"
        },
        {
            "bufferView" : 18,
            "componentType" : 5126,
            "count" : 24,
            "type" : "VEC2"
        },
        {
            "bufferView" : 19,
            "componentType" : 5123,
            "count" : 36,
            "type" : "SCALAR"
        }
    ],
    "bufferViews" : [
        {
            "buffer" : 0,
            "byteLength" : 27648,
            "byteOffset" : 0
        },
        {
            "buffer" : 0,
            "byteLength" : 27648,
            "byteOffset" : 27648
        },
        {
            "buffer" : 0,
            "byteLength" : 36864,
            "byteOffset" : 55296
        },
        {
            "buffer" : 0,
            "byteLength" : 18432,
            "byteOffset" : 92160
        },
        {
            "buffer" : 0,
            "byteLength" : 6912,
            "byteOffset" : 110592
        },
        {
            "buffer" : 0,
            "byteLength" : 27648,
            "byteOffset" : 117504
        },
        {
            "buffer" : 0,
            "byteLength" : 27648,
            "byteOffset" : 145152
        },
        {
            "buffer" : 0,
            "byteLength" : 36864,
            "byteOffset" : 172800
        },
        {
            "buffer" : 0,
            "byteLength" : 18432,
            "byteOffset" : 209664
        },
        {
            "buffer" : 0,
            "byteLength" : 6912,
            "byteOffset" : 228096
        },
        {
            "buffer" : 0,
            "byteLength" : 2880,
            "byteOffset" : 235008
        },
        {
            "buffer" : 0,
            "byteLength" : 2880,
            "byteOffset" : 237888
        },
        {
            "buffer" : 0,
            "byteLength" : 3840,
            "byteOffset" : 240768
        },
        {
            "buffer" : 0,
            "byteLength" : 1920,
            "byteOffset" : 244608
        },
        {
            "buffer" : 0,
            "byteLength" : 480,
            "byteOffset" : 246528
        },
        {
            "buffer" : 0,
            "byteLength" : 288,
            "byteOffset" : 247008
        },
        {
            "buffer" : 0,
            "byteLength" : 288,
            "byteOffset" : 247296
        },
        {
            "buffer" : 0,
            "byteLength" : 384,
            "byteOffset" : 247584
        },
        {
            "buffer" : 0,
            "byteLength" : 192,
            "byteOffset" : 247968
        },
        {
            "buffer" : 0,
            "byteLength" : 72,
            "byteOffset" : 248160
        }
    ],
    "buffers" : [
        {
            "byteLength" : 248232,
            "uri" : "test2.bin"
        }
    ]
}
