{
    "asset" : {
        "generator" : "Khronos glTF Blender I/O v1.7.33",
        "version" : "2.0"
    },
    "extensionsUsed" : [
        "KHR_lights_punctual"
    ],
    "extensionsRequired" : [
        "KHR_lights_punctual"
    ],
    "extensions" : {
        "KHR_lights_punctual" : {
            "lights" : [
                {
                    "color" : [
                        1,
                        0.45406094193458557,
                        0.4842339754104614
                    ],
                    "intensity" : 1200,
                    "type" : "point",
                    "name" : "Point.001"
                },
                {
                    "color" : [
                        0.5874391794204712,
                        1,
                        0.5930744409561157
                    ],
                    "intensity" : 1200,
                    "type" : "point",
                    "name" : "Point.002"
                },
                {
                    "color" : [
                        0.9185710549354553,
                        0.9843430519104004,
                        1
                    ],
                    "intensity" : 1200,
                    "type" : "point",
                    "name" : "Point.003"
                }
            ]
        }
    },
    "scene" : 0,
    "scenes" : [
        {
            "name" : "Scene",
            "nodes" : [
                1,
                3,
                4,
                9,
                11,
                16,
                21,
                23
            ]
        }
    ],
    "nodes" : [
        {
            "camera" : 0,
            "name" : "Camera_Orientation",
            "rotation" : [
                -0.7071067690849304,
                0,
                0,
                0.7071067690849304
            ]
        },
        {
            "children" : [
                0
            ],
            "name" : "Camera",
            "rotation" : [
                0.4050707519054413,
                -0.5627875328063965,
                0.3679933249950409,
                0.6194907426834106
            ],
            "translation" : [
                -22.903039932250977,
                11.044025421142578,
                2.772552490234375
            ]
        },
        {
            "extensions" : {
                "KHR_lights_punctual" : {
                    "light" : 0
                }
            },
            "name" : "Point.001_Orientation",
            "rotation" : [
                -0.7071067690849304,
                0,
                0,
                0.7071067690849304
            ]
        },
        {
            "children" : [
                2
            ],
            "name" : "Point.001",
            "translation" : [
                -5.304234504699707,
                7.501969337463379,
                3.5311472415924072
            ]
        },
        {
            "mesh" : 0,
            "name" : "Plane"
        },
        {
            "mesh" : 1,
            "name" : "TurbineLapat1",
            "translation" : [
                0.04651141166687012,
                1.7919492721557617,
                -0.002565598115324974
            ]
        },
        {
            "mesh" : 2,
            "name" : "TurbineLapat2",
            "translation" : [
                0.050611257553100586,
                -0.8770122528076172,
                -1.5457905530929565
            ]
        },
        {
            "mesh" : 3,
            "name" : "TurbineLapat3",
            "translation" : [
                0.04993462562561035,
                -0.8773922920227051,
                1.5442297458648682
            ]
        },
        {
            "children" : [
                5,
                6,
                7
            ],
            "mesh" : 4,
            "name" : "TurbineTengely",
            "translation" : [
                -1.5856831073760986,
                5.218419075012207,
                0
            ]
        },
        {
            "children" : [
                8
            ],
            "mesh" : 5,
            "name" : "TurbineTop"
        },
        {
            "extensions" : {
                "KHR_lights_punctual" : {
                    "light" : 1
                }
            },
            "name" : "Point.002_Orientation",
            "rotation" : [
                -0.7071067690849304,
                0,
                0,
                0.7071067690849304
            ]
        },
        {
            "children" : [
                10
            ],
            "name" : "Point.002",
            "translation" : [
                5.297215938568115,
                7.5001749992370605,
                -0.4398350715637207
            ]
        },
        {
            "mesh" : 1,
            "name" : "TurbineLapat1.001",
            "translation" : [
                0.04651141166687012,
                1.7919490337371826,
                -0.002565622329711914
            ]
        },
        {
            "mesh" : 2,
            "name" : "TurbineLapat2.001",
            "translation" : [
                0.050611257553100586,
                -0.8770120143890381,
                -1.5457911491394043
            ]
        },
        {
            "mesh" : 3,
            "name" : "TurbineLapat3.001",
            "translation" : [
                0.04993462562561035,
                -0.877392053604126,
                1.544229507446289
            ]
        },
        {
            "children" : [
                12,
                13,
                14
            ],
            "mesh" : 4,
            "name" : "TurbineTengely.001",
            "rotation" : [
                0.2588190734386444,
                0,
                0,
                0.965925931930542
            ],
            "translation" : [
                -1.5856831073760986,
                5.218419075012207,
                0
            ]
        },
        {
            "children" : [
                15
            ],
            "mesh" : 5,
            "name" : "TurbineTop.001",
            "translation" : [
                3.467707872390747,
                0,
                -5.099999904632568
            ]
        },
        {
            "mesh" : 1,
            "name" : "TurbineLapat1.002",
            "translation" : [
                0.046511173248291016,
                1.7919492721557617,
                -0.0025652083568274975
            ]
        },
        {
            "mesh" : 2,
            "name" : "TurbineLapat2.002",
            "translation" : [
                0.050611019134521484,
                -0.8770127296447754,
                -1.5457909107208252
            ]
        },
        {
            "mesh" : 3,
            "name" : "TurbineLapat3.002",
            "translation" : [
                0.04993486404418945,
                -0.8773922920227051,
                1.544229507446289
            ]
        },
        {
            "children" : [
                17,
                18,
                19
            ],
            "mesh" : 4,
            "name" : "TurbineTengely.002",
            "rotation" : [
                0.7071068286895752,
                0,
                0,
                0.7071068286895752
            ],
            "translation" : [
                -1.5856831073760986,
                5.218419075012207,
                0
            ]
        },
        {
            "children" : [
                20
            ],
            "mesh" : 5,
            "name" : "TurbineTop.002",
            "translation" : [
                -3.1752512454986572,
                0,
                5.099999904632568
            ]
        },
        {
            "extensions" : {
                "KHR_lights_punctual" : {
                    "light" : 2
                }
            },
            "name" : "Point.003_Orientation",
            "rotation" : [
                -0.7071067690849304,
                0,
                0,
                0.7071067690849304
            ]
        },
        {
            "children" : [
                22
            ],
            "name" : "Point.003",
            "translation" : [
                -5.113915920257568,
                4.725076198577881,
                -2.539212226867676
            ]
        }
    ],
    "cameras" : [
        {
            "name" : "Camera",
            "perspective" : {
                "aspectRatio" : 1.7777777777777777,
                "yfov" : 0.39959652046304894,
                "zfar" : 100,
                "znear" : 0.10000000149011612
            },
            "type" : "perspective"
        }
    ],
    "animations" : [
        {
            "channels" : [
                {
                    "sampler" : 0,
                    "target" : {
                        "node" : 8,
                        "path" : "rotation"
                    }
                }
            ],
            "name" : "TurbineTengelyAction.001",
            "samplers" : [
                {
                    "input" : 16,
                    "interpolation" : "LINEAR",
                    "output" : 17
                }
            ]
        },
        {
            "channels" : [
                {
                    "sampler" : 0,
                    "target" : {
                        "node" : 15,
                        "path" : "rotation"
                    }
                }
            ],
            "name" : "TurbineTengely.001Action",
            "samplers" : [
                {
                    "input" : 16,
                    "interpolation" : "LINEAR",
                    "output" : 18
                }
            ]
        },
        {
            "channels" : [
                {
                    "sampler" : 0,
                    "target" : {
                        "node" : 20,
                        "path" : "rotation"
                    }
                }
            ],
            "name" : "TurbineTengely.002Action.001",
            "samplers" : [
                {
                    "input" : 16,
                    "interpolation" : "LINEAR",
                    "output" : 19
                }
            ]
        }
    ],
    "materials" : [
        {
            "doubleSided" : true,
            "name" : "Textured",
            "normalTexture" : {
                "index" : 0
            },
            "pbrMetallicRoughness" : {
                "baseColorTexture" : {
                    "index" : 1
                },
                "metallicRoughnessTexture" : {
                    "index" : 2
                }
            }
        }
    ],
    "meshes" : [
        {
            "name" : "Plane",
            "primitives" : [
                {
                    "attributes" : {
                        "POSITION" : 0,
                        "TEXCOORD_0" : 1
                    },
                    "indices" : 2,
                    "material" : 0
                }
            ]
        },
        {
            "name" : "Cylinder.007",
            "primitives" : [
                {
                    "attributes" : {
                        "POSITION" : 3,
                        "TEXCOORD_0" : 4
                    },
                    "indices" : 5,
                    "material" : 0
                }
            ]
        },
        {
            "name" : "Cylinder.009",
            "primitives" : [
                {
                    "attributes" : {
                        "POSITION" : 6,
                        "TEXCOORD_0" : 7
                    },
                    "indices" : 5,
                    "material" : 0
                }
            ]
        },
        {
            "name" : "Cylinder.008",
            "primitives" : [
                {
                    "attributes" : {
                        "POSITION" : 8,
                        "TEXCOORD_0" : 9
                    },
                    "indices" : 5,
                    "material" : 0
                }
            ]
        },
        {
            "name" : "Cylinder.006",
            "primitives" : [
                {
                    "attributes" : {
                        "POSITION" : 10,
                        "TEXCOORD_0" : 11
                    },
                    "indices" : 12,
                    "material" : 0
                }
            ]
        },
        {
            "name" : "Cylinder.003",
            "primitives" : [
                {
                    "attributes" : {
                        "POSITION" : 13,
                        "TEXCOORD_0" : 14
                    },
                    "indices" : 15,
                    "material" : 0
                }
            ]
        }
    ],
    "textures" : [
        {
            "sampler" : 0,
            "source" : 0
        },
        {
            "sampler" : 0,
            "source" : 1
        },
        {
            "sampler" : 0,
            "source" : 2
        }
    ],
    "images" : [
        {
            "mimeType" : "image/jpeg",
            "name" : "MetalCorrodedHeavy001_NRM_1K_METALNESS.jpg",
            "uri" : "textures/MetalCorrodedHeavy001_NRM_1K_METALNESS.jpg"
        },
        {
            "mimeType" : "image/jpeg",
            "name" : "MetalCorrodedHeavy001_COL_1K_METALNESS.jpg",
            "uri" : "textures/MetalCorrodedHeavy001_COL_1K_METALNESS.jpg"
        },
        {
            "mimeType" : "image/jpeg",
            "name" : "MetalCorrodedHeavy001_ROUGHNESS_1K_METALNESS.jpg",
            "uri" : "textures/MetalCorrodedHeavy001_ROUGHNESS_1K_METALNESS.jpg"
        }
    ],
    "accessors" : [
        {
            "bufferView" : 0,
            "componentType" : 5126,
            "count" : 4,
            "max" : [
                10,
                0,
                10
            ],
            "min" : [
                -10,
                0,
                -10
            ],
            "type" : "VEC3"
        },
        {
            "bufferView" : 1,
            "componentType" : 5126,
            "count" : 4,
            "type" : "VEC2"
        },
        {
            "bufferView" : 2,
            "componentType" : 5123,
            "count" : 6,
            "type" : "SCALAR"
        },
        {
            "bufferView" : 3,
            "componentType" : 5126,
            "count" : 396,
            "max" : [
                0.06021523475646973,
                1.7142829895019531,
                0.06021512299776077
            ],
            "min" : [
                -0.060215115547180176,
                -1.7142834663391113,
                -0.06021512299776077
            ],
            "type" : "VEC3"
        },
        {
            "bufferView" : 4,
            "componentType" : 5126,
            "count" : 396,
            "type" : "VEC2"
        },
        {
            "bufferView" : 5,
            "componentType" : 5123,
            "count" : 1920,
            "type" : "SCALAR"
        },
        {
            "bufferView" : 6,
            "componentType" : 5126,
            "count" : 396,
            "max" : [
                0.060215115547180176,
                0.8925671577453613,
                1.505065679550171
            ],
            "min" : [
                -0.060215115547180176,
                -0.8925676345825195,
                -1.505065679550171
            ],
            "type" : "VEC3"
        },
        {
            "bufferView" : 7,
            "componentType" : 5126,
            "count" : 396,
            "type" : "VEC2"
        },
        {
            "bufferView" : 8,
            "componentType" : 5126,
            "count" : 396,
            "max" : [
                0.060215115547180176,
                0.8925676345825195,
                1.505065679550171
            ],
            "min" : [
                -0.060215115547180176,
                -0.8925673961639404,
                -1.505065679550171
            ],
            "type" : "VEC3"
        },
        {
            "bufferView" : 9,
            "componentType" : 5126,
            "count" : 396,
            "type" : "VEC2"
        },
        {
            "bufferView" : 10,
            "componentType" : 5126,
            "count" : 132,
            "max" : [
                0.12062442302703857,
                0.09999990463256836,
                0.10000000149011612
            ],
            "min" : [
                -0.12062454223632812,
                -0.09999990463256836,
                -0.10000000149011612
            ],
            "type" : "VEC3"
        },
        {
            "bufferView" : 11,
            "componentType" : 5126,
            "count" : 132,
            "type" : "VEC2"
        },
        {
            "bufferView" : 12,
            "componentType" : 5123,
            "count" : 384,
            "type" : "SCALAR"
        },
        {
            "bufferView" : 13,
            "componentType" : 5126,
            "count" : 627,
            "max" : [
                1.3595731258392334,
                5.570685863494873,
                0.3699433207511902
            ],
            "min" : [
                -1.5119950771331787,
                -0.12161111831665039,
                -0.3699433207511902
            ],
            "type" : "VEC3"
        },
        {
            "bufferView" : 14,
            "componentType" : 5126,
            "count" : 627,
            "type" : "VEC2"
        },
        {
            "bufferView" : 15,
            "componentType" : 5123,
            "count" : 2496,
            "type" : "SCALAR"
        },
        {
            "bufferView" : 16,
            "componentType" : 5126,
            "count" : 200,
            "max" : [
                8.333333333333334
            ],
            "min" : [
                0.041666666666666664
            ],
            "type" : "SCALAR"
        },
        {
            "bufferView" : 17,
            "componentType" : 5126,
            "count" : 200,
            "type" : "VEC4"
        },
        {
            "bufferView" : 18,
            "componentType" : 5126,
            "count" : 200,
            "type" : "VEC4"
        },
        {
            "bufferView" : 19,
            "componentType" : 5126,
            "count" : 200,
            "type" : "VEC4"
        }
    ],
    "bufferViews" : [
        {
            "buffer" : 0,
            "byteLength" : 48,
            "byteOffset" : 0
        },
        {
            "buffer" : 0,
            "byteLength" : 32,
            "byteOffset" : 48
        },
        {
            "buffer" : 0,
            "byteLength" : 12,
            "byteOffset" : 80
        },
        {
            "buffer" : 0,
            "byteLength" : 4752,
            "byteOffset" : 92
        },
        {
            "buffer" : 0,
            "byteLength" : 3168,
            "byteOffset" : 4844
        },
        {
            "buffer" : 0,
            "byteLength" : 3840,
            "byteOffset" : 8012
        },
        {
            "buffer" : 0,
            "byteLength" : 4752,
            "byteOffset" : 11852
        },
        {
            "buffer" : 0,
            "byteLength" : 3168,
            "byteOffset" : 16604
        },
        {
            "buffer" : 0,
            "byteLength" : 4752,
            "byteOffset" : 19772
        },
        {
            "buffer" : 0,
            "byteLength" : 3168,
            "byteOffset" : 24524
        },
        {
            "buffer" : 0,
            "byteLength" : 1584,
            "byteOffset" : 27692
        },
        {
            "buffer" : 0,
            "byteLength" : 1056,
            "byteOffset" : 29276
        },
        {
            "buffer" : 0,
            "byteLength" : 768,
            "byteOffset" : 30332
        },
        {
            "buffer" : 0,
            "byteLength" : 7524,
            "byteOffset" : 31100
        },
        {
            "buffer" : 0,
            "byteLength" : 5016,
            "byteOffset" : 38624
        },
        {
            "buffer" : 0,
            "byteLength" : 4992,
            "byteOffset" : 43640
        },
        {
            "buffer" : 0,
            "byteLength" : 800,
            "byteOffset" : 48632
        },
        {
            "buffer" : 0,
            "byteLength" : 3200,
            "byteOffset" : 49432
        },
        {
            "buffer" : 0,
            "byteLength" : 3200,
            "byteOffset" : 52632
        },
        {
            "buffer" : 0,
            "byteLength" : 3200,
            "byteOffset" : 55832
        }
    ],
    "samplers" : [
        {
            "magFilter" : 9729,
            "minFilter" : 9987
        }
    ],
    "buffers" : [
        {
            "byteLength" : 59032,
            "uri" : "test2.bin"
        }
    ]
}
